Coordinates
version=1
nRows=14
nColumns=40
inDegrees=yes

Units are S.I. units (second, meters, Newtons, ...)
If the header above contains a line with 'inDegrees', this indicates whether rotational values are in degrees (yes) or radians (no).

endheader
time	pelvis_tilt	pelvis_list	pelvis_rotation	pelvis_tx	pelvis_ty	pelvis_tz	hip_flexion_r	hip_adduction_r	hip_rotation_r	knee_angle_r	knee_angle_r_beta	ankle_angle_r	subtalar_angle_r	mtp_angle_r	hip_flexion_l	hip_adduction_l	hip_rotation_l	knee_angle_l	knee_angle_l_beta	ankle_angle_l	subtalar_angle_l	mtp_angle_l	lumbar_extension	lumbar_bending	lumbar_rotation	arm_flex_r	arm_add_r	arm_rot_r	elbow_flex_r	pro_sup_r	wrist_flex_r	wrist_dev_r	arm_flex_l	arm_add_l	arm_rot_l	elbow_flex_l	pro_sup_l	wrist_flex_l	wrist_dev_l
      1.55000000	     -0.77295352	      7.25425589	    -87.48063491	      0.28536871	      0.94112104	      0.82022285	     29.46960605	      2.18950064	     -4.56317911	      5.01044766	      0.08744881	     -2.94814010	      0.00000000	      0.00000000	     -6.54441781	      3.09061788	      3.42565124	      8.40919815	      0.14676820	      9.75105162	      0.00000000	      0.00000000	      1.55861823	     -0.26885368	     -3.20159489	      0.00000000	      0.00000000	      0.00000000	      0.00000000	      0.00000000	      0.00000000	      0.00000000	      0.00000000	      0.00000000	      0.00000000	      0.00000000	      0.00000000	      0.00000000	      0.00000000
      1.56000000	     -1.08515960	      7.31244887	    -87.37855658	      0.28481792	      0.94016848	      0.83071999	     29.73275753	      2.48053761	     -5.49087452	      6.28088444	      0.10962211	     -3.95928090	     -0.00000000	     -0.00000000	     -6.78672502	      2.67858104	      3.31457596	      9.12338518	      0.15923311	      9.88237970	      0.00000000	      0.00000000	      1.77556721	      0.09710320	     -3.32091754	      0.00000000	     -0.00000000	     -0.00000000	      0.00000000	      0.00000000	     -0.00000000	     -0.00000000	     -0.00000000	      0.00000000	      0.00000000	      0.00000000	      0.00000000	      0.00000000	      0.00000000
      1.57000000	     -1.41148053	      7.37390574	    -87.33349358	      0.28415075	      0.93935270	      0.84138034	     29.98941876	      2.78892813	     -6.26617597	      7.61544375	      0.13291457	     -4.98595196	      0.00000000	      0.00000000	     -7.02023985	      2.24972689	      3.12719766	      9.84242032	      0.17178264	      9.90653650	      0.00000000	      0.00000000	      2.01218398	      0.48874181	     -3.40082305	      0.00000000	      0.00000000	      0.00000000	      0.00000000	      0.00000000	      0.00000000	      0.00000000	      0.00000000	      0.00000000	      0.00000000	      0.00000000	      0.00000000	      0.00000000	      0.00000000
      1.58000000	     -1.74819645	      7.45897913	    -87.25633710	      0.28352954	      0.93866012	      0.85211363	     30.25877148	      3.06280163	     -7.00012358	      8.98698951	      0.15685256	     -5.97266717	      0.00000000	      0.00000000	     -7.12475063	      1.80417543	      2.95658675	     10.74388746	      0.18751621	      9.81325208	      0.00000000	      0.00000000	      2.29154147	      0.89542421	     -3.53297653	      0.00000000	      0.00000000	      0.00000000	      0.00000000	      0.00000000	      0.00000000	      0.00000000	      0.00000000	      0.00000000	      0.00000000	      0.00000000	      0.00000000	      0.00000000	      0.00000000
      1.59000000	     -2.09592182	      7.51786923	    -87.21536706	      0.28282317	      0.93817805	      0.86294001	     30.47375302	      3.34845662	     -7.64429235	     10.36092698	      0.18083229	     -6.88322664	      0.00000000	      0.00000000	     -7.20584196	      1.33227380	      2.71024081	     11.72309098	      0.20460654	      9.57900356	      0.00000000	      0.00000000	      2.54431240	      1.31267275	     -3.60185193	      0.00000000	      0.00000000	      0.00000000	      0.00000000	      0.00000000	      0.00000000	      0.00000000	      0.00000000	      0.00000000	      0.00000000	      0.00000000	      0.00000000	      0.00000000	      0.00000000
      1.60000000	     -2.44966991	      7.57960848	    -87.17203549	      0.28207434	      0.93787354	      0.87384775	     30.64411685	      3.64140109	     -8.11591170	     11.68909051	      0.20401312	     -7.61584978	      0.00000000	      0.00000000	     -7.20438639	      0.84050314	      2.44985989	     12.82159506	      0.22377905	      9.18288215	      0.00000000	      0.00000000	      2.81420950	      1.73500965	     -3.68568913	      0.00000000	      0.00000000	      0.00000000	      0.00000000	      0.00000000	      0.00000000	      0.00000000	      0.00000000	      0.00000000	      0.00000000	      0.00000000	      0.00000000	      0.00000000	      0.00000000
      1.61000000	     -2.80140255	      7.64364677	    -87.14255468	      0.28128926	      0.93774960	      0.88478694	     30.76131384	      3.94451405	     -8.44148081	     12.94856634	      0.22599512	     -8.14539786	      0.00000000	      0.00000000	     -7.10404951	      0.33760648	      2.16857232	     14.06543361	      0.24548813	      8.60503349	      0.00000000	      0.00000000	      3.08937595	      2.15578517	     -3.75926456	      0.00000000	      0.00000000	      0.00000000	      0.00000000	      0.00000000	      0.00000000	      0.00000000	      0.00000000	      0.00000000	      0.00000000	      0.00000000	      0.00000000	      0.00000000	      0.00000000
      1.62000000	     -3.14034643	      7.67601705	    -87.10984987	      0.28045659	      0.93786283	      0.89576639	     30.78165843	      4.25440863	     -8.63489366	     14.12553178	      0.24653704	     -8.45742531	      0.00000000	      0.00000000	     -6.93811166	     -0.17200433	      1.88689825	     15.44244381	      0.26952149	      7.81167895	      0.00000000	      0.00000000	      3.32840709	      2.56237955	     -3.81176278	      0.00000000	      0.00000000	      0.00000000	      0.00000000	      0.00000000	      0.00000000	      0.00000000	      0.00000000	      0.00000000	      0.00000000	      0.00000000	      0.00000000	      0.00000000	      0.00000000
      1.63000000	     -3.48409018	      7.76342551	    -87.09896110	      0.27953772	      0.93807503	      0.90671934	     30.79312267	      4.60125394	     -8.70192426	     15.19301844	      0.26516820	     -8.56507197	      0.00000000	      0.00000000	     -6.58790337	     -0.71040033	      1.54070859	     17.00382921	      0.29677281	      6.82602438	      0.00000000	      0.00000000	      3.63345055	      2.96487467	     -3.84992746	      0.00000000	      0.00000000	      0.00000000	      0.00000000	      0.00000000	      0.00000000	      0.00000000	      0.00000000	      0.00000000	      0.00000000	      0.00000000	      0.00000000	      0.00000000	      0.00000000
      1.64000000	     -3.76823432	      7.76265168	    -87.08188152	      0.27859372	      0.93860310	      0.91763153	     30.62728623	      4.90639256	     -8.73783474	     16.12832692	      0.28149241	     -8.48002946	      0.00000000	      0.00000000	     -6.21791910	     -1.20844321	      1.24776144	     18.71041364	      0.32655832	      5.59719141	      0.00000000	      0.00000000	      3.81464655	      3.28215478	     -3.86773524	      0.00000000	      0.00000000	      0.00000000	      0.00000000	      0.00000000	      0.00000000	      0.00000000	      0.00000000	      0.00000000	      0.00000000	      0.00000000	      0.00000000	      0.00000000	      0.00000000
      1.65000000	     -4.07441972	      7.80838346	    -87.08266719	      0.27762708	      0.93922181	      0.92849715	     30.44434192	      5.26730957	     -8.66952706	     16.95474089	      0.29591605	     -8.23839222	      0.00000000	      0.00000000	     -5.66488268	     -1.75338141	      0.88883992	     20.59156362	      0.35939058	      4.13734283	      0.00000000	      0.00000000	      4.05992064	      3.64929172	     -3.86708929	      0.00000000	      0.00000000	      0.00000000	      0.00000000	      0.00000000	      0.00000000	      0.00000000	      0.00000000	      0.00000000	      0.00000000	      0.00000000	      0.00000000	      0.00000000	      0.00000000
      1.66000000	     -4.32774907	      7.82385097	    -87.07407762	      0.27661694	      0.94003439	      0.93928949	     30.14376590	      5.59663368	     -8.57481651	     17.63625543	      0.30781072	     -7.87895577	      0.00000000	      0.00000000	     -5.01035125	     -2.26870989	      0.57531521	     22.65002767	      0.39531756	      2.47858915	      0.00000000	      0.00000000	      4.25252348	      3.93181726	     -3.84379548	      0.00000000	      0.00000000	      0.00000000	      0.00000000	      0.00000000	      0.00000000	      0.00000000	      0.00000000	      0.00000000	      0.00000000	      0.00000000	      0.00000000	      0.00000000	      0.00000000
      1.67000000	     -4.57357805	      7.88092989	    -87.08317855	      0.27552505	      0.94092117	      0.94993904	     29.81550130	      5.95532921	     -8.41101194	     18.18295859	      0.31735250	     -7.42024532	      0.00000000	      0.00000000	     -4.16226695	     -2.80432662	      0.22934748	     24.90240085	      0.43462889	      0.58393163	      0.00000000	      0.00000000	      4.47576760	      4.19687915	     -3.78393486	      0.00000000	      0.00000000	      0.00000000	      0.00000000	      0.00000000	      0.00000000	      0.00000000	      0.00000000	      0.00000000	      0.00000000	      0.00000000	      0.00000000	      0.00000000	      0.00000000
      1.68000000	     -4.76441869	      7.86143886	    -87.07072311	      0.27448374	      0.94202700	      0.96048295	     29.32864683	      6.25413258	     -8.31988337	     18.59885572	      0.32461127	     -6.89390191	      0.00000000	      0.00000000	     -3.26739005	     -3.30642309	     -0.06958158	     27.31060658	      0.47666001	     -1.45298259	      0.00000000	      0.00000000	      4.58677762	      4.39635531	     -3.73263848	      0.00000000	      0.00000000	      0.00000000	      0.00000000	      0.00000000	      0.00000000	      0.00000000	      0.00000000	      0.00000000	      0.00000000	      0.00000000	      0.00000000	      0.00000000	      0.00000000
